
        <svg xmlns="http://www.w3.org/2000/svg" xmlns:xlink="http://www.w3.org/1999/xlink" version="1.1" width="3160.090861262869" 
        height="441.9535171516855" viewBox="0 0 3160.090861262869 441.9535171516855">
			<rect fill="#000000" width="3160.090861262869" height="441.9535171516855"/>
			<g transform="scale(8.004543063143453) translate(10, 10)">
				<defs id="SvgjsDefs1246"></defs><g id="SvgjsG1247" featureKey="nRdZyp-0" transform="matrix(0.6642566919326782,0,0,0.6642566919326782,-6.64256704387387,-4.64256704387387)" fill="#ffffff"><g xmlns="http://www.w3.org/2000/svg"><g><path d="M56.5834961,33.2109375H28.8271484c-0.5522461,0-1-0.4477539-1-1V12.5273438    C27.8271484,11.1337891,28.9609375,10,30.3544922,10h24.7016602c1.3935547,0,2.5273438,1.1337891,2.5273438,2.5273438v19.6835938    C57.5834961,32.7631836,57.1357422,33.2109375,56.5834961,33.2109375z M29.8271484,31.2109375h25.7563477V12.5273438    C55.5834961,12.2363281,55.347168,12,55.0561523,12H30.3544922c-0.2910156,0-0.5273438,0.2363281-0.5273438,0.5273438V31.2109375z    "></path></g><g><path d="M55.2412109,37.0493164h-25.0625c-2.6240234,0-4.7587891-1.7099609-4.7587891-3.8115234v-1.0268555    c0-0.5522461,0.4477539-1,1-1H59c0.5522461,0,1,0.4477539,1,1v1.0268555    C60,35.3393555,57.8652344,37.0493164,55.2412109,37.0493164z M27.4199219,33.2109375v0.0268555    c0,0.9819336,1.2631836,1.8115234,2.7587891,1.8115234h25.0625C56.7368164,35.0493164,58,34.2197266,58,33.237793v-0.0268555    H27.4199219z"></path></g><g><path d="M56.5834961,33.2109375H28.8271484c-0.5522461,0-1-0.4477539-1-1V12.5273438    C27.8271484,11.1337891,28.9609375,10,30.3544922,10h24.7016602c1.3935547,0,2.5273438,1.1337891,2.5273438,2.5273438v19.6835938    C57.5834961,32.7631836,57.1357422,33.2109375,56.5834961,33.2109375z M29.8271484,31.2109375h25.7563477V12.5273438    C55.5834961,12.2363281,55.347168,12,55.0561523,12H30.3544922c-0.2910156,0-0.5273438,0.2363281-0.5273438,0.5273438V31.2109375z    "></path></g><g><path d="M55.2412109,37.0493164h-25.0625c-2.6240234,0-4.7587891-1.7099609-4.7587891-3.8115234v-1.0268555    c0-0.5522461,0.4477539-1,1-1H59c0.5522461,0,1,0.4477539,1,1v1.0268555    C60,35.3393555,57.8652344,37.0493164,55.2412109,37.0493164z M27.4199219,33.2109375v0.0268555    c0,0.9819336,1.2631836,1.8115234,2.7587891,1.8115234h25.0625C56.7368164,35.0493164,58,34.2197266,58,33.237793v-0.0268555    H27.4199219z"></path></g><g><path d="M51.5522461,60H18.4355469C13.7841797,60,10,55.7910156,10,50.6171875c0-5,3.534668-9.0991211,7.9702148-9.3686523    c0.9995117-5.8193359,5.4047852-10.3032227,10.762207-10.8120117c0.2856445-0.0249023,0.559082,0.0673828,0.7675781,0.2558594    c0.2084961,0.1894531,0.3271484,0.4580078,0.3271484,0.7397461v0.7788086c0,0.5522461-0.4477539,1-1,1l-1.4072266,0.0268555    c0,0.9819336,1.2631836,1.8115234,2.7587891,1.8115234h18.7758789c0.215332,0,0.425293,0.0698242,0.5981445,0.1987305    c2.0405273,1.5224609,3.5439453,3.7583008,4.2773438,6.3427734C57.4404297,42.6982422,60,46.3886719,60,50.6171875    C60,55.7910156,56.2104492,60,51.5522461,60z M18.4355469,43.234375C14.887207,43.234375,12,46.5463867,12,50.6171875    S14.887207,58,18.4355469,58h33.1166992C55.1074219,58,58,54.6879883,58,50.6171875    c0-3.5292969-2.1889648-6.5708008-5.2055664-7.2324219c-0.3759766-0.0825195-0.671875-0.3735352-0.7592773-0.7490234    c-0.5288086-2.2612305-1.7387695-4.2324219-3.4223633-5.5864258h-18.434082c-2.5083008,0-4.5698242-1.5625-4.746582-3.5361328    c-2.9936523,1.6459961-5.1767578,4.9433594-5.6000977,8.8554688c-0.0302734,0.2802734-0.1777344,0.534668-0.4052734,0.7006836    c-0.2280273,0.1665039-0.515625,0.2265625-0.7915039,0.1713867C18.6054688,43.234375,18.5073242,43.234375,18.4355469,43.234375z"></path></g><g><g><g><path d="M48.65625,26.3085938c-0.2558594,0-0.5112305-0.0976563-0.706543-0.2924805      c-0.390625-0.3901367-0.3911133-1.0234375-0.0009766-1.4140625l2.8618164-2.8657227L47.9492188,18.875      c-0.390625-0.390625-0.390625-1.0234375,0-1.4140625s1.0234375-0.390625,1.4140625,0l3.5678711,3.5678711      c0.390625,0.3901367,0.390625,1.0229492,0.0004883,1.4135742l-3.5678711,3.5727539      C49.168457,26.2109375,48.9125977,26.3085938,48.65625,26.3085938z"></path></g><g><path d="M36.7543945,26.3085938c-0.2563477,0-0.512207-0.0976563-0.7075195-0.293457l-3.5678711-3.5727539      c-0.3901367-0.390625-0.3901367-1.0234375,0.0004883-1.4135742l3.5678711-3.5678711      c0.390625-0.390625,1.0234375-0.390625,1.4140625,0s0.390625,1.0234375,0,1.4140625l-2.8613281,2.8613281l2.8618164,2.8657227      c0.3901367,0.390625,0.3901367,1.0239258-0.0009766,1.4140625      C37.265625,26.2109375,37.0102539,26.3085938,36.7543945,26.3085938z"></path></g></g><g><path d="M39.2397461,29.3862305c-0.1557617,0-0.3134766-0.0361328-0.4614258-0.1132813     c-0.4897461-0.2553711-0.6796875-0.8588867-0.4243164-1.3491211l7.0678711-13.5620117     c0.2558594-0.4892578,0.859375-0.6801758,1.3491211-0.4243164c0.4897461,0.2553711,0.6796875,0.8588867,0.4243164,1.3491211     l-7.0678711,13.5620117C39.9492188,29.1904297,39.6005859,29.3862305,39.2397461,29.3862305z"></path></g></g></g></g><g id="SvgjsG1248" featureKey="Q4qmbg-0" transform="matrix(1.821847677230835,0,0,1.821847677230835,56.46964810414961,-4.327859919328272)" fill="#ffffff"><path d="M3.82 5.119999999999999 l0 14.88 l-2.98 0 l0 -14.88 l2.98 0 z M21.663895833333335 20 l-2.98 0 l0 -5.64 c0 -1.52 -0.42 -2.16 -1.54 -2.16 c-1.2 0 -1.9 0.64 -1.9 2.16 l0 5.64 l-2.98 0 l0 -5.64 c0 -1.52 -0.4 -2.16 -1.54 -2.16 c-1.2 0 -1.92 0.64 -1.92 2.16 l0 5.64 l-2.96 0 l0 -9.88 l2.96 0 l0 0.9 c0.7 -0.7 1.76 -1.04 2.7 -1.04 c1.4 0 2.3 0.52 2.94 1.34 c0.54 -0.66 1.7 -1.26 3.44 -1.34 c2.78 0 3.78 1.32 3.78 4.38 l0 5.64 z M34.38779166666667 10.12 l3.02 0 l-3.76 9.88 l-1.94 0 l-1.84 -4.78 c-0.62 1.66 -1.22 3.22 -1.8 4.78 l-1.96 0 l-3.78 -9.88 l3.04 0 l1.72 5.44 l1.7 -5.44 l2.18 0 l1.7 5.46 z M46.271687500000006 13.42 l0 2.52 l-7.8 0 l0 -2.52 l7.8 0 z M58.11558333333334 15.08 l0 0.66 l-7.04 0 c0 1.16 1.18 1.98 2.16 1.98 c0.96 0 1.84 -0.38 2.3 -1.22 l1.98 1.82 c-0.8 1.08 -2.02 1.84 -4.28 1.84 c-3.24 0 -5.22 -2.16 -5.22 -5.08 s1.92 -5.1 5.04 -5.1 s5.06 2.14 5.06 5.1 z M51.135583333333344 13.86 l3.88 0 c-0.16 -0.94 -0.84 -1.44 -1.96 -1.44 c-1.08 0 -1.74 0.58 -1.92 1.44 z M68.53947916666667 14.36 l0 5.64 l-2.96 0 l0 -5.64 c0 -1.5 -0.4 -2.16 -1.56 -2.16 c-1.2 0 -1.9 0.66 -1.9 2.16 l0 5.64 l-2.96 0 l0 -9.88 l2.96 0 l0 0.94 c0.76 -0.74 1.8 -1.08 2.66 -1.08 c2.78 0 3.76 1.34 3.76 4.38 z M73.62337500000001 15.8 c0 0.72 -0.02 1.92 1.08 1.92 c0.54 0 0.88 -0.22 1.26 -0.5 l0 2.44 c-0.46 0.26 -1.02 0.5 -1.62 0.5 c-2.54 0 -3.68 -1.08 -3.68 -4.36 l0 -3.24 l-1.1 0 l0 -2.44 l1.1 0 l0 -2.84 l2.96 0 l0 2.84 l2.34 0 l0 2.44 l-2.34 0 l0 3.24 z M87.68727083333334 15.08 l0 0.66 l-7.04 0 c0 1.16 1.18 1.98 2.16 1.98 c0.96 0 1.84 -0.38 2.3 -1.22 l1.98 1.82 c-0.8 1.08 -2.02 1.84 -4.28 1.84 c-3.24 0 -5.22 -2.16 -5.22 -5.08 s1.92 -5.1 5.04 -5.1 s5.06 2.14 5.06 5.1 z M80.70727083333334 13.86 l3.88 0 c-0.16 -0.94 -0.84 -1.44 -1.96 -1.44 c-1.08 0 -1.74 0.58 -1.92 1.44 z M95.43116666666667 10.26 l-0.4 2.22 c-0.74 -0.32 -0.88 -0.26 -1.22 -0.26 c-1.2 0 -1.9 0.64 -1.9 2.22 l0 5.56 l-2.96 0 l0 -9.88 l2.96 0 l0 0.88 c0.38 -0.68 1.42 -1.02 2.08 -1.02 c0.62 0 0.98 0.02 1.44 0.28 z M99.37506250000001 15.8 c0 0.72 -0.02 1.92 1.08 1.92 c0.54 0 0.88 -0.22 1.26 -0.5 l0 2.44 c-0.46 0.26 -1.02 0.5 -1.62 0.5 c-2.54 0 -3.68 -1.08 -3.68 -4.36 l0 -3.24 l-1.1 0 l0 -2.44 l1.1 0 l0 -2.84 l2.96 0 l0 2.84 l2.34 0 l0 2.44 l-2.34 0 l0 3.24 z M105.87895833333334 13.04 l-2.2 -1.26 c1.1 -1.24 2.58 -1.82 4.12 -1.82 c2.96 0 4.16 1.62 4.16 3.14 l0 6.9 l-2.96 0 l0 -0.7 c-0.46 0.48 -1.28 0.84 -2.2 0.84 c-2.7 0 -3.74 -1.2 -3.74 -3.04 c0 -2.08 1.68 -3.48 4.4 -3.48 l1.54 0 c0 -0.74 -0.56 -1.22 -1.4 -1.22 c-0.86 0 -1.28 0.16 -1.72 0.64 z M108.99895833333333 16.740000000000002 l0 -0.88 l-1.74 0 c-0.78 0 -1.36 0.54 -1.24 1.3 c0.08 0.54 0.56 0.76 1.24 0.76 c1.3 0 1.74 -0.74 1.74 -1.18 z M116.68285416666667 10.12 l0 9.88 l-2.96 0 l0 -9.88 l2.96 0 z M116.76285416666667 7.279999999999999 c0 0.84 -0.68 1.5 -1.58 1.5 c-0.86 0 -1.56 -0.66 -1.56 -1.5 c0 -0.82 0.7 -1.46 1.56 -1.46 c0.9 0 1.58 0.64 1.58 1.46 z M127.58675 14.36 l0 5.64 l-2.96 0 l0 -5.64 c0 -1.5 -0.4 -2.16 -1.56 -2.16 c-1.2 0 -1.9 0.66 -1.9 2.16 l0 5.64 l-2.96 0 l0 -9.88 l2.96 0 l0 0.94 c0.76 -0.74 1.8 -1.08 2.66 -1.08 c2.78 0 3.76 1.34 3.76 4.38 z M145.17064583333334 20 l-2.98 0 l0 -5.64 c0 -1.52 -0.42 -2.16 -1.54 -2.16 c-1.2 0 -1.9 0.64 -1.9 2.16 l0 5.64 l-2.98 0 l0 -5.64 c0 -1.52 -0.4 -2.16 -1.54 -2.16 c-1.2 0 -1.92 0.64 -1.92 2.16 l0 5.64 l-2.96 0 l0 -9.88 l2.96 0 l0 0.9 c0.7 -0.7 1.76 -1.04 2.7 -1.04 c1.4 0 2.3 0.52 2.94 1.34 c0.54 -0.66 1.7 -1.26 3.44 -1.34 c2.78 0 3.78 1.32 3.78 4.38 l0 5.64 z M156.8745416666667 15.08 l0 0.66 l-7.04 0 c0 1.16 1.18 1.98 2.16 1.98 c0.96 0 1.84 -0.38 2.3 -1.22 l1.98 1.82 c-0.8 1.08 -2.02 1.84 -4.28 1.84 c-3.24 0 -5.22 -2.16 -5.22 -5.08 s1.92 -5.1 5.04 -5.1 s5.06 2.14 5.06 5.1 z M149.8945416666667 13.86 l3.88 0 c-0.16 -0.94 -0.84 -1.44 -1.96 -1.44 c-1.08 0 -1.74 0.58 -1.92 1.44 z M167.29843750000003 14.36 l0 5.64 l-2.96 0 l0 -5.64 c0 -1.5 -0.4 -2.16 -1.56 -2.16 c-1.2 0 -1.9 0.66 -1.9 2.16 l0 5.64 l-2.96 0 l0 -9.88 l2.96 0 l0 0.94 c0.76 -0.74 1.8 -1.08 2.66 -1.08 c2.78 0 3.76 1.34 3.76 4.38 z M172.38233333333335 15.8 c0 0.72 -0.02 1.92 1.08 1.92 c0.54 0 0.88 -0.22 1.26 -0.5 l0 2.44 c-0.46 0.26 -1.02 0.5 -1.62 0.5 c-2.54 0 -3.68 -1.08 -3.68 -4.36 l0 -3.24 l-1.1 0 l0 -2.44 l1.1 0 l0 -2.84 l2.96 0 l0 2.84 l2.34 0 l0 2.44 l-2.34 0 l0 3.24 z"></path></g>
			</g>
		</svg>
	